<?xml version="1.0" standalone="no"?>
<!DOCTYPE svg PUBLIC "-//W3C//DTD SVG 20010904//EN"
 "http://www.w3.org/TR/2001/REC-SVG-20010904/DTD/svg10.dtd">
<svg version="1.0" xmlns="http://www.w3.org/2000/svg"
 width="512.000000pt" height="512.000000pt" viewBox="0 0 512.000000 512.000000"
 preserveAspectRatio="xMidYMid meet">

<g transform="translate(0.000000,512.000000) scale(0.100000,-0.100000)"
fill="#000000" stroke="none">
<path d="M2245 4039 c-280 -33 -482 -134 -690 -343 -130 -131 -188 -222 -245
-384 -51 -143 -64 -248 -57 -434 l6 -147 -46 14 c-37 11 -52 12 -72 2 -52 -25
-111 -151 -111 -238 0 -120 118 -376 239 -521 52 -62 81 -105 81 -121 0 -49
41 -183 76 -246 117 -212 290 -381 529 -515 186 -104 379 -170 575 -196 253
-34 480 71 701 323 150 172 257 353 327 556 36 104 37 109 39 273 l1 168 36
33 c19 19 40 46 46 61 16 43 23 214 12 294 -13 91 -37 141 -83 170 l-36 23 -6
147 c-8 191 -33 308 -91 425 -174 357 -450 568 -836 641 -107 21 -292 28 -395
15z m435 -58 c355 -83 597 -276 764 -609 55 -110 96 -320 96 -496 l0 -51 -123
-1 c-132 -2 -290 -23 -374 -50 -67 -22 -126 -72 -147 -125 -10 -24 -20 -79
-23 -124 l-6 -81 -46 23 c-25 13 -73 26 -106 31 l-60 7 -9 43 c-12 56 -27 54
-20 -2 l6 -44 -53 -11 c-29 -7 -73 -23 -98 -37 -24 -13 -45 -23 -47 -22 -1 2
-7 39 -13 83 -29 209 -111 255 -451 255 -239 0 -355 -27 -408 -95 l-20 -25
-128 38 -129 37 1 190 c0 164 3 202 23 274 55 210 146 366 290 504 188 178
366 267 620 307 94 15 364 4 461 -19z m898 -1228 c54 -40 65 -74 70 -218 7
-191 -12 -237 -114 -274 -81 -31 -262 -54 -383 -49 -135 5 -163 18 -199 96
-24 52 -27 68 -27 177 0 137 12 174 70 213 71 49 266 83 448 78 90 -2 112 -6
135 -23z m-1450 -33 c110 -14 150 -28 188 -63 46 -42 68 -141 61 -274 -7 -145
-31 -172 -192 -209 -121 -29 -374 -27 -470 3 -75 24 -115 55 -136 108 -17 45
-24 254 -9 299 19 60 55 94 118 113 104 30 303 41 440 23z m-908 -32 l45 -23
13 -89 c7 -49 15 -92 17 -95 12 -12 13 10 4 78 -6 40 -8 75 -6 77 2 3 51 -46
109 -108 105 -113 105 -113 117 -182 28 -162 87 -209 300 -237 215 -29 515 27
567 106 9 15 23 49 30 77 8 28 21 62 29 74 21 32 108 75 158 77 l40 2 12 -50
c7 -27 22 -94 35 -148 18 -82 31 -111 73 -174 60 -88 65 -123 24 -176 -14 -19
-51 -51 -82 -72 -31 -20 -54 -39 -51 -42 9 -9 133 76 166 114 46 51 41 93 -19
184 -47 73 -75 142 -106 269 -9 36 -18 73 -21 83 -12 40 128 7 182 -44 12 -11
32 -47 45 -80 34 -86 77 -123 164 -139 85 -16 252 -7 385 20 52 11 98 20 102
20 13 0 20 -193 9 -259 -54 -332 -339 -753 -621 -921 -138 -82 -275 -105 -451
-75 -137 23 -246 55 -368 109 -267 117 -468 278 -606 485 -104 157 -142 265
-152 439 -7 116 -23 138 -23 32 l0 -71 -28 33 c-113 131 -244 415 -244 528 0
60 10 93 48 158 29 48 42 51 104 20z"/>
<path d="M3354 2627 c-2 -7 -3 -78 -2 -157 l3 -145 63 -3 c51 -2 62 0 62 13 0
11 -12 15 -50 15 l-50 0 0 125 0 125 44 0 c46 0 69 16 45 31 -22 14 -109 11
-115 -4z"/>
<path d="M3105 2590 c-4 -11 -6 -33 -5 -48 5 -70 5 -70 -60 -78 -84 -9 -82
-32 3 -36 l62 -3 3 -57 c2 -43 7 -58 17 -58 12 0 15 14 15 60 l0 59 63 3 c47
2 62 7 62 18 0 11 -15 16 -62 18 l-62 3 -3 66 c-3 67 -20 94 -33 53z"/>
<path d="M1836 2581 c-70 -7 -91 -31 -27 -31 l41 0 0 -89 c0 -130 10 -211 26
-211 11 0 14 30 14 150 l0 150 34 0 33 0 6 -82 c4 -46 7 -111 7 -145 0 -60 14
-89 30 -63 4 7 6 40 3 74 l-4 61 35 -72 c34 -71 56 -92 56 -54 0 10 -11 43
-25 73 -31 66 -31 72 -1 111 17 22 25 48 27 82 l3 50 -99 1 c-55 1 -127 -2
-159 -5z m224 -51 c0 -19 -11 -41 -30 -62 l-29 -33 -1 63 0 62 30 0 c27 0 30
-3 30 -30z"/>
<path d="M2135 2578 c-3 -8 -4 -83 -3 -168 l3 -155 60 0 c47 0 60 3 60 15 0
10 -13 16 -41 18 -39 3 -42 5 -48 40 -3 20 -6 85 -6 144 0 61 -4 110 -10 113
-6 3 -12 0 -15 -7z"/>
<path d="M1657 2563 c-9 -8 -9 -225 -1 -275 6 -32 11 -37 41 -43 45 -8 93 3
93 21 0 10 -13 14 -50 14 l-50 0 -2 80 c-5 187 -7 174 31 180 56 8 51 30 -6
30 -28 0 -53 -3 -56 -7z"/>
<path d="M2180 1549 c-27 -45 -80 -84 -150 -114 -98 -41 -61 -49 52 -11 129
43 257 61 438 61 145 0 179 -4 283 -28 123 -29 183 -32 87 -4 -245 72 -438 83
-678 40 l-34 -6 21 41 c37 72 21 88 -19 21z"/>
</g>
</svg>
